HIERARCHY
ROOT Hips
{
    OFFSET 0.000000 0.000000 0.000000
    CHANNELS 6 Xposition Yposition Zposition Zrotation Xrotation Yrotation
    JOINT Spine
    {
        OFFSET -0.000000 14.517291 0.000000
        CHANNELS 3 Zrotation Xrotation Yrotation
        JOINT Spine1
        {
            OFFSET -0.000000 37.558300 0.000000
            CHANNELS 3 Zrotation Xrotation Yrotation
            JOINT Neck
            {
                OFFSET -0.000000 37.404057 3.400369
                CHANNELS 3 Zrotation Xrotation Yrotation
                JOINT Head
                {
                    OFFSET -0.000000 24.785618 -3.540803
                    CHANNELS 3 Zrotation Xrotation Yrotation
                    End Site
                    {
                        OFFSET -0.000000 35.408028 0.000000
                    }
                }
            }
            JOINT LeftShoulder
            {
                OFFSET 6.992933 33.973492 -0.192664
                CHANNELS 3 Zrotation Xrotation Yrotation
                JOINT LeftArm
                {
                    OFFSET 21.527611 0.000000 0.000000
                    CHANNELS 3 Zrotation Xrotation Yrotation
                    JOINT LeftForeArm
                    {
                        OFFSET 56.353916 0.000000 0.000000
                        CHANNELS 3 Zrotation Xrotation Yrotation
                        JOINT LeftHand
                        {
                            OFFSET 47.774071 0.000000 0.000000
                            CHANNELS 3 Zrotation Xrotation Yrotation
                            End Site
                            {
                                OFFSET 26.556021 0.000000 0.000000
                            }
                        }
                    }
                }
            }
            JOINT RightShoulder
            {
                OFFSET -7.065357 33.973492 -0.192664
                CHANNELS 3 Zrotation Xrotation Yrotation
                JOINT RightArm
                {
                    OFFSET -21.527611 0.000000 0.000000
                    CHANNELS 3 Zrotation Xrotation Yrotation
                    JOINT RightForeArm
                    {
                        OFFSET -56.353916 0.000000 0.000000
                        CHANNELS 3 Zrotation Xrotation Yrotation
                        JOINT RightHand
                        {
                            OFFSET -47.774071 0.000000 0.000000
                            CHANNELS 3 Zrotation Xrotation Yrotation
                            End Site
                            {
                                OFFSET -26.556021 0.000000 0.000000
                            }
                        }
                    }
                }
            }
        }
    }
    JOINT LeftUpLeg
    {
        OFFSET 17.704014 0.000000 0.000000
        CHANNELS 3 Zrotation Xrotation Yrotation
        JOINT LeftLeg
        {
            OFFSET -0.000000 -81.181816 0.000000
            CHANNELS 3 Zrotation Xrotation Yrotation
            JOINT LeftFoot
            {
                OFFSET -0.000000 -62.821102 0.000000
                CHANNELS 3 Zrotation Xrotation Yrotation
                JOINT LeftToeBase
                {
                    OFFSET -0.000000 -11.507608 26.556021
                    CHANNELS 3 Zrotation Xrotation Yrotation
                    End Site
                    {
                        OFFSET -0.000000 0.000000 7.081605
                    }
                }
            }
        }
    }
    JOINT RightUpLeg
    {
        OFFSET -17.704014 0.000000 0.000000
        CHANNELS 3 Zrotation Xrotation Yrotation
        JOINT RightLeg
        {
            OFFSET -0.000000 -81.181816 0.000000
            CHANNELS 3 Zrotation Xrotation Yrotation
            JOINT RightFoot
            {
                OFFSET -0.000000 -62.821102 0.000000
                CHANNELS 3 Zrotation Xrotation Yrotation
                JOINT RightToeBase
                {
                    OFFSET -0.000000 -11.507608 26.556021
                    CHANNELS 3 Zrotation Xrotation Yrotation
                    End Site
                    {
                        OFFSET -0.000000 0.000000 7.081605
                    }
                }
            }
        }
    }
}
MOTION
Frames:    11
Frame Time:    0.008333
10.422522    158.659943    -110.357872    -1.176134    -1.522820    38.340115    -1.468225    0.233490    -2.718063    -4.017077    0.323659    -0.897021    3.799004    0.548290    -15.833438    11.539382    1.892792    -15.622408    5.535001    8.213030    -19.539381    -26.805511    19.287256    -54.629501    -0.913857    -11.272815    -105.586769    5.492579    -13.027982    -12.242989    -7.564909    0.720004    -3.610667    25.326958    -19.313343    50.028778    -22.306044    -19.229212    66.001251    -0.227973    -4.911160    33.615219    16.228401    1.644059    -3.790729    -8.212015    17.872498    -17.883480    -3.450408    -21.239120    40.724113    0.000000    0.000000    0.000000    -13.827945    -14.374881    -10.084283    5.384535    9.045789    -13.558347    5.078529    10.367422    -16.655388    0.000000    0.000000    0.000000    
10.373023    158.608063    -110.396362    -1.234154    -1.494315    38.322041    -1.427161    0.279186    -2.709288    -3.999569    0.285836    -0.895559    3.849063    0.561500    -15.816114    11.466279    1.806123    -15.611309    5.552592    8.215543    -19.552246    -26.791325    19.270206    -54.651051    -0.911860    -11.315160    -105.591545    5.513999    -13.069110    -12.224420    -7.576217    0.682115    -3.609622    25.345760    -19.329145    50.034157    -22.248722    -19.181877    66.008659    -0.269365    -4.910577    33.567085    16.283764    1.297852    -3.636832    -8.288632    18.475197    -17.904989    -3.387760    -21.431393    40.691628    0.000000    0.000000    0.000000    -13.862541    -14.642152    -10.036891    5.479512    9.407639    -13.473543    5.048838    10.266800    -16.821480    0.000000    0.000000    0.000000    
10.325426    158.547882    -110.432014    -1.290457    -1.472666    38.299885    -1.379234    0.327956    -2.699101    -3.994385    0.249292    -0.893544    3.891246    0.541555    -15.781981    11.421585    1.752537    -15.582509    5.587951    8.199032    -19.557137    -26.788645    19.286808    -54.678272    -0.870074    -11.379994    -105.574440    5.525703    -13.081597    -12.245350    -7.568033    0.670598    -3.614399    25.342913    -19.329683    50.062454    -22.240334    -19.171574    65.965820    -0.306115    -4.928652    33.558468    16.347055    0.953067    -3.434815    -8.354108    19.107904    -17.942877    -3.331297    -21.632421    40.613075    0.000000    0.000000    0.000000    -13.894279    -14.916193    -9.997731    5.576755    9.797043    -13.338781    5.008573    10.155395    -17.016291    0.000000    0.000000    0.000000    
10.281181    158.483154    -110.471428    -1.341435    -1.450008    38.277397    -1.327727    0.382453    -2.689483    -3.987523    0.214422    -0.891641    3.950654    0.555413    -15.760290    11.321638    1.633555    -15.568499    5.606807    8.169462    -19.548101    -26.781227    19.319937    -54.707821    -0.814855    -11.446899    -105.555138    5.558381    -13.081739    -12.275076    -7.584079    0.654347    -3.617877    25.355047    -19.314096    50.093735    -22.246721    -19.192200    65.929558    -0.292582    -4.952065    33.522980    16.400547    0.611980    -3.235333    -8.409074    19.744085    -17.964432    -3.274316    -21.837210    40.520374    0.000000    0.000000    0.000000    -13.947682    -15.194942    -9.940236    5.700762    10.220523    -13.087639    5.012363    9.987922    -17.343439    0.000000    0.000000    0.000000    
10.235892    158.410583    -110.517326    -1.396452    -1.440234    38.256947    -1.264010    0.452774    -2.677058    -3.977622    0.170545    -0.889175    4.003914    0.589810    -15.742041    11.241179    1.483489    -15.551154    5.614810    8.141182    -19.538170    -26.783504    19.324188    -54.741402    -0.779462    -11.478683    -105.525604    5.493851    -13.062975    -12.324066    -7.573431    0.661227    -3.618410    25.329350    -19.332926    50.126404    -22.249069    -19.193747    65.903473    -0.341778    -4.974213    33.511257    16.472332    0.252284    -3.023649    -8.487551    20.427021    -17.957111    -3.216763    -22.058508    40.407242    0.000000    0.000000    0.000000    -13.996536    -15.481354    -9.928015    5.818248    10.685837    -12.848652    5.039042    9.792727    -17.622353    0.000000    0.000000    0.000000    
10.193637    158.328293    -110.571220    -1.442596    -1.435075    38.239014    -1.192703    0.542100    -2.671233    -3.980617    0.113647    -0.889281    4.078978    0.621251    -15.707059    11.127827    1.327188    -15.523321    5.625782    8.134076    -19.544182    -26.792599    19.292858    -54.755692    -0.761041    -11.484677    -105.527634    5.509856    -13.045042    -12.282365    -7.560706    0.629660    -3.594809    25.314056    -19.356501    50.123508    -22.187155    -19.182528    65.919121    -0.264215    -4.976924    33.514015    16.499262    -0.097921    -2.840733    -8.527407    21.180540    -17.918375    -3.081820    -22.337412    40.330841    0.000000    0.000000    0.000000    -14.052817    -15.778474    -9.950701    5.918519    11.192481    -12.717265    5.051406    9.610778    -17.765520    0.000000    0.000000    0.000000    
10.147992    158.238541    -110.639313    -1.514328    -1.411801    38.227177    -1.102450    0.609662    -2.666592    -3.981938    0.053551    -0.889862    4.125960    0.644972    -15.691919    11.039460    1.170931    -15.509572    5.622683    8.129940    -19.544649    -26.772341    19.280621    -54.785587    -0.757232    -11.538054    -105.534111    5.500757    -13.091019    -12.254750    -7.572576    0.602179    -3.598986    25.291002    -19.335398    50.146778    -22.140461    -19.222284    65.912910    -0.218726    -5.038900    33.528137    16.574524    -0.556824    -2.763371    -8.683101    21.973026    -17.809978    -2.938932    -22.552872    40.299915    0.000000    0.000000    0.000000    -14.108311    -16.120775    -10.039426    6.002238    11.732577    -12.645329    5.071287    9.435631    -17.799168    0.000000    0.000000    0.000000    
10.101729    158.136002    -110.725639    -1.616900    -1.386729    38.241451    -0.969020    0.668692    -2.682856    -4.003583    -0.019587    -0.897671    4.170713    0.680113    -15.669217    10.961090    0.990634    -15.483808    5.626187    8.113138    -19.540794    -26.790375    19.247517    -54.808495    -0.787284    -11.522357    -105.536034    5.453921    -13.109821    -12.275373    -7.569509    0.581589    -3.574051    25.254038    -19.349899    50.138050    -22.127338    -19.219084    65.892120    -0.209765    -5.047713    33.558701    16.666826    -1.070376    -2.791342    -8.846974    22.789850    -17.720448    -2.798566    -22.809771    40.354298    0.000000    0.000000    0.000000    -14.178141    -16.464724    -9.978549    6.176774    12.228301    -12.757980    5.073146    9.272201    -17.838186    0.000000    0.000000    0.000000    
10.055659    158.022690    -110.803650    -1.716889    -1.386694    38.270447    -0.840440    0.735709    -2.705094    -3.992588    -0.076813    -0.906904    4.154095    0.708149    -15.662514    10.949871    0.842203    -15.460709    5.610916    8.109072    -19.564564    -26.788610    19.210632    -54.814770    -0.773458    -11.547732    -105.529305    5.463250    -13.120102    -12.318449    -7.573693    0.583600    -3.577117    25.230015    -19.394737    50.181271    -22.047941    -19.178295    65.855911    -0.276449    -5.089152    33.636734    16.797993    -1.576317    -2.942314    -9.102428    23.609924    -17.623007    -2.599061    -23.071396    40.515854    0.000000    0.000000    0.000000    -14.254536    -16.789085    -10.002933    6.367045    12.757092    -12.810454    5.072474    9.093514    -17.867693    0.000000    0.000000    0.000000    
10.016150    157.903229    -110.878754    -1.796095    -1.400798    38.301262    -0.719775    0.811432    -2.719113    -3.989407    -0.104926    -0.912320    4.177020    0.738859    -15.651645    10.909226    0.658908    -15.439420    5.633896    8.112476    -19.597801    -26.802856    19.170204    -54.851128    -0.735440    -11.589437    -105.502747    5.482786    -13.116617    -12.366780    -7.592260    0.551528    -3.568904    25.196489    -19.381104    50.164989    -22.118324    -19.174469    65.787407    -0.326979    -5.071641    33.674053    16.935505    -2.041527    -3.124211    -9.393339    24.399864    -17.579163    -2.360981    -23.321703    40.749046    0.000000    0.000000    0.000000    -14.343123    -17.086712    -10.074215    6.569174    13.290568    -12.826149    5.040826    8.893919    -17.912121    0.000000    0.000000    0.000000    
9.982552    157.769272    -110.951508    -1.874922    -1.416481    38.334309    -0.593846    0.870315    -2.743365    -3.980370    -0.117840    -0.920575    4.160585    0.749915    -15.647408    10.895558    0.539087    -15.422709    5.626332    8.110965    -19.601215    -26.806860    19.161051    -54.887112    -0.716421    -11.664186    -105.472466    5.433392    -13.161364    -12.382420    -7.614643    0.550819    -3.539381    25.176722    -19.392962    50.171665    -22.152103    -19.214409    65.740044    -0.305192    -5.097416    33.619888    17.070539    -2.499039    -3.226006    -9.643256    25.211397    -17.674198    -2.132527    -23.614836    41.020554    0.000000    0.000000    0.000000    -14.419007    -17.373434    -10.293134    6.692978    13.828942    -12.698938    5.053576    8.673162    -17.916265    0.000000    0.000000    0.000000    
